<svg width="48" height="48" viewBox="0 0 48 48" fill="none" xmlns="http://www.w3.org/2000/svg">
<g clip-path="url(#clip0_32_152)">
<mask id="mask0_32_152" style="mask-type:luminance" maskUnits="userSpaceOnUse" x="0" y="0" width="48" height="48">
<path d="M0 0H48V48H0V0Z" fill="white"/>
</mask>
<g mask="url(#mask0_32_152)">
<path d="M24 48C37.255 48 48 37.255 48 24C48 10.745 37.255 0 24 0C10.745 0 0 10.745 0 24C0 37.255 10.745 48 24 48Z" fill="url(#paint0_linear_32_152)"/>
<path fill-rule="evenodd" clip-rule="evenodd" d="M10.8641 23.7469C17.8601 20.6979 22.5261 18.6889 24.8601 17.7169C31.5251 14.9459 32.9101 14.4639 33.8131 14.4479C34.0111 14.4449 34.4551 14.4939 34.7431 14.7279C34.9851 14.9239 35.0531 15.1899 35.0841 15.3779C35.1161 15.5639 35.1561 15.9889 35.1241 16.3219C34.7641 20.1169 33.2001 29.3259 32.4051 33.5769C32.0691 35.3749 31.4071 35.9779 30.7651 36.0369C29.3711 36.1659 28.3131 35.1169 26.9631 34.2309C24.8511 32.8469 23.6581 31.9849 21.6071 30.6339C19.2371 29.0719 20.7741 28.2139 22.1241 26.8109C22.4781 26.4439 28.6181 20.8589 28.7371 20.3519C28.7521 20.2889 28.7661 20.0519 28.6261 19.9279C28.4861 19.8029 28.2781 19.8459 28.1291 19.8789C27.9171 19.9279 24.5421 22.1579 18.0051 26.5709C17.0471 27.2279 16.1801 27.5489 15.4031 27.5319C14.5461 27.5139 12.8971 27.0469 11.6721 26.6489C10.1691 26.1609 8.97409 25.9019 9.07809 25.0729C9.13309 24.6399 9.72809 24.1979 10.8641 23.7469Z" fill="white"/>
</g>
</g>
<defs>
<linearGradient id="paint0_linear_32_152" x1="24" y1="0" x2="24" y2="47.644" gradientUnits="userSpaceOnUse">
<stop stop-color="#2AABEE"/>
<stop offset="1" stop-color="#229ED9"/>
</linearGradient>
<clipPath id="clip0_32_152">
<rect width="48" height="48" fill="white"/>
</clipPath>
</defs>
</svg>
