<svg width="48" height="48" viewBox="0 0 48 48" fill="none" xmlns="http://www.w3.org/2000/svg">
<g clip-path="url(#clip0_32_159)">
<mask id="mask0_32_159" style="mask-type:luminance" maskUnits="userSpaceOnUse" x="0" y="0" width="48" height="48">
<path d="M0 0H48V48H0V0Z" fill="white"/>
</mask>
<g mask="url(#mask0_32_159)">
<path d="M0 23.04C0 12.179 0 6.748 3.374 3.374C6.748 0 12.18 0 23.04 0H24.96C35.821 0 41.252 0 44.626 3.374C48 6.748 48 12.18 48 23.04V24.96C48 35.821 48 41.252 44.626 44.626C41.252 48 35.82 48 24.96 48H23.04C12.179 48 6.748 48 3.374 44.626C0 41.252 0 35.82 0 24.96V23.04Z" fill="#0077FF"/>
<path d="M25.5401 34.5801C14.6001 34.5801 8.3601 27.0801 8.1001 14.6001H13.5801C13.7601 23.7601 17.8001 27.6401 21.0001 28.4401V14.6001H26.1601V22.5001C29.3201 22.1601 32.6401 18.5601 33.7601 14.6001H38.9201C38.0601 19.4801 34.4601 23.0801 31.9001 24.5601C34.4601 25.7601 38.5601 28.9001 40.1201 34.5801H34.4401C33.2201 30.7801 30.1801 27.8401 26.1601 27.4401V34.5801H25.5401Z" fill="white"/>
</g>
</g>
<defs>
<clipPath id="clip0_32_159">
<rect width="48" height="48" fill="white"/>
</clipPath>
</defs>
</svg>
