<svg width="48" height="48" viewBox="0 0 48 48" fill="none" xmlns="http://www.w3.org/2000/svg">
<g clip-path="url(#clip0_32_143)">
<mask id="mask0_32_143" style="mask-type:luminance" maskUnits="userSpaceOnUse" x="0" y="0" width="48" height="48">
<path d="M0 0H48V48H0V0Z" fill="white"/>
</mask>
<g mask="url(#mask0_32_143)">
<path fill-rule="evenodd" clip-rule="evenodd" d="M24.02 0C10.738 0 0 10.817 0 24.198C0 34.895 6.88 43.95 16.424 47.154C17.617 47.395 18.054 46.634 18.054 45.993C18.054 45.432 18.015 43.509 18.015 41.505C11.333 42.948 9.942 38.621 9.942 38.621C8.868 35.816 7.277 35.096 7.277 35.096C5.09 33.613 7.437 33.613 7.437 33.613C9.862 33.773 11.135 36.097 11.135 36.097C13.282 39.783 16.742 38.741 18.135 38.1C18.333 36.538 18.969 35.456 19.645 34.855C14.316 34.295 8.709 32.211 8.709 22.916C8.709 20.272 9.663 18.109 11.175 16.426C10.936 15.826 10.101 13.341 11.414 10.016C11.414 10.016 13.442 9.375 18.014 12.5C19.973 11.97 21.992 11.7 24.02 11.698C26.048 11.698 28.115 11.979 30.025 12.5C34.598 9.375 36.626 10.016 36.626 10.016C37.939 13.341 37.103 15.826 36.865 16.426C38.415 18.109 39.33 20.272 39.33 22.916C39.33 32.211 33.723 34.254 28.354 34.856C29.23 35.616 29.984 37.058 29.984 39.342C29.984 42.587 29.945 45.192 29.945 45.992C29.945 46.634 30.383 47.395 31.575 47.155C41.12 43.949 48 34.895 48 24.198C48.04 10.817 37.262 0 24.02 0Z" fill="#24292F"/>
</g>
</g>
<defs>
<clipPath id="clip0_32_143">
<rect width="48" height="48" fill="white"/>
</clipPath>
</defs>
</svg>
