<svg xmlns="http://www.w3.org/2000/svg" version="1.1" xmlns:xlink="http://www.w3.org/1999/xlink" xmlns:svgjs="http://svgjs.dev/svgjs" width="1440" height="1024" preserveAspectRatio="none" viewBox="0 0 1440 1024"><g mask="url(&quot;#SvgjsMask1197&quot;)" fill="none"><path d="M1440 0L735.81 0L1440 26.48z" fill="rgba(255, 255, 255, .1)"></path><path d="M735.81 0L1440 26.48L1440 542.7L544.54 0z" fill="rgba(255, 255, 255, .075)"></path><path d="M544.54 0L1440 542.7L1440 647L346.97999999999996 0z" fill="rgba(255, 255, 255, .05)"></path><path d="M346.98 0L1440 647L1440 809.2L123.56000000000003 0z" fill="rgba(255, 255, 255, .025)"></path><path d="M0 1024L389.75 1024L0 910.28z" fill="rgba(0, 0, 0, .1)"></path><path d="M0 910.28L389.75 1024L438.3 1024L0 666.31z" fill="rgba(0, 0, 0, .075)"></path><path d="M0 666.31L438.3 1024L870.64 1024L0 314.69999999999993z" fill="rgba(0, 0, 0, .05)"></path><path d="M0 314.70000000000005L870.64 1024L895.09 1024L0 100.90000000000003z" fill="rgba(0, 0, 0, .025)"></path></g><defs><mask id="SvgjsMask1197"><rect width="1440" height="1024" fill="#ffffff"></rect></mask></defs></svg>