<svg width="48" height="48" viewBox="0 0 48 48" fill="none" xmlns="http://www.w3.org/2000/svg">
<g clip-path="url(#clip0_32_149)">
<path d="M24 48C37.2548 48 48 37.2548 48 24C48 10.7452 37.2548 0 24 0C10.7452 0 0 10.7452 0 24C0 37.2548 10.7452 48 24 48Z" fill="url(#paint0_linear_32_149)"/>
<path fill-rule="evenodd" clip-rule="evenodd" d="M24.322 38.914C21.378 38.914 20.01 38.483 17.632 36.756C16.127 38.699 11.364 40.216 11.156 37.619C11.156 35.669 10.726 34.022 10.239 32.224C9.66 30.008 9 27.54 9 23.964C9 15.424 15.977 9 24.244 9C32.517 9 39 15.741 39 24.044C39.0148 27.9662 37.4777 31.735 34.724 34.528C33.3639 35.9074 31.745 37.0049 29.96 37.7575C28.1751 38.5101 26.2591 38.9031 24.322 38.914ZM24.444 16.381C20.418 16.173 17.281 18.971 16.586 23.361C16.013 26.993 17.03 31.418 17.896 31.648C18.312 31.748 19.358 30.9 20.01 30.245C21.0869 30.9924 22.3424 31.4416 23.649 31.547C25.6556 31.6435 27.6195 30.9463 29.116 29.606C30.6165 28.2619 31.5314 26.384 31.665 24.374C31.7434 22.3602 31.031 20.3955 29.68 18.9C28.3323 17.4078 26.4513 16.5061 24.444 16.39V16.381Z" fill="white"/>
</g>
<defs>
<linearGradient id="paint0_linear_32_149" x1="0" y1="24" x2="48" y2="24" gradientUnits="userSpaceOnUse">
<stop stop-color="#365AFC"/>
<stop offset="1" stop-color="#9944DA"/>
</linearGradient>
<clipPath id="clip0_32_149">
<rect width="48" height="48" fill="white"/>
</clipPath>
</defs>
</svg>
