<svg width="48" height="48" viewBox="0 0 48 48" fill="none" xmlns="http://www.w3.org/2000/svg">
<g clip-path="url(#clip0_32_140)">
<path d="M0 24C0 10.745 10.742 0 24 0C37.253 0 48 10.745 48 24C48 37.255 37.253 48 24 48C10.742 48 0 37.255 0 24Z" fill="#FC3F1D"/>
<path d="M27.072 13.598H24.854C20.789 13.598 18.65 15.658 18.65 18.694C18.65 22.126 20.129 23.734 23.165 25.795L25.673 27.485L18.466 38.254H13.08L19.548 28.62C15.828 25.954 13.74 23.364 13.74 18.984C13.74 13.493 17.568 9.74402 24.828 9.74402H32.035V38.227H27.072V13.6V13.598Z" fill="white"/>
</g>
<defs>
<clipPath id="clip0_32_140">
<rect width="48" height="48" fill="white"/>
</clipPath>
</defs>
</svg>
